<svg version="1.1" viewBox="0.0 0.0 400.0 400.0" fill="none" stroke="none" stroke-linecap="square" stroke-miterlimit="10" xmlns:xlink="http://www.w3.org/1999/xlink" xmlns="http://www.w3.org/2000/svg"><clipPath id="p.0"><path d="m0 0l400.0 0l0 400.0l-400.0 0l0 -400.0z" clip-rule="nonzero"/></clipPath><g clip-path="url(#p.0)"><path fill="#000000" fill-opacity="0.0" d="m0 0l400.0 0l0 400.0l-400.0 0z" fill-rule="evenodd"/><defs><linearGradient id="p.1" gradientUnits="userSpaceOnUse" gradientTransform="matrix(17.320536784596 0.0 0.0 17.320536784596 0.0 0.0)" spreadMethod="pad" x1="3.620480254000714" y1="3.5619302288608967" x2="3.6204178049024938" y2="20.882467013344314"><stop offset="0.0" stop-color="#f48108"/><stop offset="1.0" stop-color="#703d08"/></linearGradient></defs><path fill="url(#p.1)" d="m62.70866 96.01837l0 0c0 18.955978 61.467426 34.32283 137.29134 34.32283c75.82391 0 137.29135 -15.366852 137.29135 -34.32283l0 231.35434c0 18.955963 -61.467438 34.322815 -137.29135 34.322815c-75.82391 0 -137.29134 -15.366852 -137.29134 -34.322815z" fill-rule="evenodd"/><defs><linearGradient id="p.2" gradientUnits="userSpaceOnUse" gradientTransform="matrix(17.320536784596 0.0 0.0 17.320536784596 0.0 0.0)" spreadMethod="pad" x1="3.620480254000714" y1="3.5619302288608967" x2="3.6204178049024938" y2="20.882467013344314"><stop offset="0.0" stop-color="#f48108"/><stop offset="1.0" stop-color="#703d08"/></linearGradient></defs><path fill="url(#p.2)" d="m62.70866 96.01837l0 0c0 -18.955978 61.467426 -34.322834 137.29134 -34.322834c75.82391 0 137.29135 15.366856 137.29135 34.322834l0 0c0 18.955978 -61.467438 34.32283 -137.29135 34.32283c-75.82391 0 -137.29134 -15.366852 -137.29134 -34.32283z" fill-rule="evenodd"/><path fill="#000000" fill-opacity="0.0" d="m337.29135 96.01837l0 0c0 18.955978 -61.467438 34.32283 -137.29135 34.32283c-75.82391 0 -137.29134 -15.366852 -137.29134 -34.32283l0 0c0 -18.955978 61.467426 -34.322834 137.29134 -34.322834c75.82391 0 137.29135 15.366856 137.29135 34.322834l0 231.35434c0 18.955963 -61.467438 34.322815 -137.29135 34.322815c-75.82391 0 -137.29134 -15.366852 -137.29134 -34.322815l0 -231.35434" fill-rule="evenodd"/><path fill="#ffffff" fill-opacity="0.4" d="m62.70866 96.01837l0 0c0 -18.955978 61.467426 -34.322834 137.29134 -34.322834c75.82391 0 137.29135 15.366856 137.29135 34.322834l0 0c0 18.955978 -61.467438 34.32283 -137.29135 34.32283c-75.82391 0 -137.29134 -15.366852 -137.29134 -34.32283z" fill-rule="evenodd"/><path stroke="#000000" stroke-width="1.0" stroke-linejoin="round" stroke-linecap="butt" d="m337.29135 96.01837l0 0c0 18.955978 -61.467438 34.32283 -137.29135 34.32283c-75.82391 0 -137.29134 -15.366852 -137.29134 -34.32283l0 0c0 -18.955978 61.467426 -34.322834 137.29134 -34.322834c75.82391 0 137.29135 15.366856 137.29135 34.322834l0 231.35434c0 18.955963 -61.467438 34.322815 -137.29135 34.322815c-75.82391 0 -137.29134 -15.366852 -137.29134 -34.322815l0 -231.35434" fill-rule="evenodd"/><path fill="#8a6552" d="m73.42382 103.385826l0 0c0 -14.037598 56.778755 -25.41732 126.8189 -25.41732l0 0c70.040146 0 126.81889 11.379723 126.81889 25.41732l0 0c0 14.037598 -56.778748 25.41732 -126.81889 25.41732l0 0c-70.040146 0 -126.8189 -11.379723 -126.8189 -25.41732z" fill-rule="evenodd"/><path stroke="#8a6552" stroke-width="1.0" stroke-linejoin="round" stroke-linecap="butt" d="m73.42382 103.385826l0 0c0 -14.037598 56.778755 -25.41732 126.8189 -25.41732l0 0c70.040146 0 126.81889 11.379723 126.81889 25.41732l0 0c0 14.037598 -56.778748 25.41732 -126.81889 25.41732l0 0c-70.040146 0 -126.8189 -11.379723 -126.8189 -25.41732z" fill-rule="evenodd"/></g></svg>